<mxfile host="Electron" modified="2024-05-28T15:37:29.098Z" agent="Mozilla/5.0 (Windows NT 10.0; Win64; x64) AppleWebKit/537.36 (KHTML, like Gecko) draw.io/24.0.4 Chrome/120.0.6099.109 Electron/28.1.0 Safari/537.36" etag="MH2NliQE7XpVybMtcZon" version="24.0.4" type="device">
  <diagram name="第 1 页" id="h2zrZuEtpmVf0U5pq_tw">
    <mxGraphModel dx="2546" dy="1436" grid="1" gridSize="10" guides="1" tooltips="1" connect="1" arrows="1" fold="1" page="0" pageScale="1" pageWidth="827" pageHeight="1169" math="0" shadow="0">
      <root>
        <mxCell id="0" />
        <mxCell id="1" parent="0" />
        <mxCell id="zxPr2gEcFa-4skPsukrC-24" value="alt&amp;nbsp;" style="shape=umlFrame;whiteSpace=wrap;html=1;pointerEvents=0;" parent="1" vertex="1">
          <mxGeometry x="-157" y="256" width="697" height="724" as="geometry" />
        </mxCell>
        <mxCell id="zxPr2gEcFa-4skPsukrC-2" value="`" style="shape=umlLifeline;perimeter=lifelinePerimeter;whiteSpace=wrap;html=1;container=1;dropTarget=0;collapsible=0;recursiveResize=0;outlineConnect=0;portConstraint=eastwest;newEdgeStyle={&quot;curved&quot;:0,&quot;rounded&quot;:0};participant=umlActor;size=67;" parent="1" vertex="1">
          <mxGeometry x="-72.5" y="-26" width="39" height="1146" as="geometry" />
        </mxCell>
        <mxCell id="zxPr2gEcFa-4skPsukrC-9" value="" style="html=1;points=[[0,0,0,0,5],[0,1,0,0,-5],[1,0,0,0,5],[1,1,0,0,-5]];perimeter=orthogonalPerimeter;outlineConnect=0;targetShapes=umlLifeline;portConstraint=eastwest;newEdgeStyle={&quot;curved&quot;:0,&quot;rounded&quot;:0};" parent="zxPr2gEcFa-4skPsukrC-2" vertex="1">
          <mxGeometry x="14.5" y="101" width="10" height="929" as="geometry" />
        </mxCell>
        <mxCell id="zxPr2gEcFa-4skPsukrC-3" value=":管理者" style="text;html=1;align=center;verticalAlign=middle;resizable=0;points=[];autosize=1;strokeColor=none;fillColor=none;fontSize=16;" parent="1" vertex="1">
          <mxGeometry x="-93" y="40" width="80" height="30" as="geometry" />
        </mxCell>
        <mxCell id="zxPr2gEcFa-4skPsukrC-7" value="進入管理者登入頁面（）" style="html=1;verticalAlign=bottom;endArrow=block;curved=0;rounded=0;fontSize=12;startSize=8;endSize=8;" parent="1" edge="1">
          <mxGeometry relative="1" as="geometry">
            <mxPoint x="-48" y="80" as="sourcePoint" />
            <mxPoint x="147" y="79" as="targetPoint" />
          </mxGeometry>
        </mxCell>
        <mxCell id="zxPr2gEcFa-4skPsukrC-11" value=":UI" style="shape=umlLifeline;perimeter=lifelinePerimeter;whiteSpace=wrap;html=1;container=1;dropTarget=0;collapsible=0;recursiveResize=0;outlineConnect=0;portConstraint=eastwest;newEdgeStyle={&quot;curved&quot;:0,&quot;rounded&quot;:0};" parent="1" vertex="1">
          <mxGeometry x="103" y="-6" width="100" height="1126" as="geometry" />
        </mxCell>
        <mxCell id="zxPr2gEcFa-4skPsukrC-12" value="" style="html=1;points=[[0,0,0,0,5],[0,1,0,0,-5],[1,0,0,0,5],[1,1,0,0,-5]];perimeter=orthogonalPerimeter;outlineConnect=0;targetShapes=umlLifeline;portConstraint=eastwest;newEdgeStyle={&quot;curved&quot;:0,&quot;rounded&quot;:0};" parent="zxPr2gEcFa-4skPsukrC-11" vertex="1">
          <mxGeometry x="45" y="78" width="10" height="52" as="geometry" />
        </mxCell>
        <mxCell id="wHdZwZcguU0iFTvbYWV7-5" value="" style="html=1;points=[[0,0,0,0,5],[0,1,0,0,-5],[1,0,0,0,5],[1,1,0,0,-5]];perimeter=orthogonalPerimeter;outlineConnect=0;targetShapes=umlLifeline;portConstraint=eastwest;newEdgeStyle={&quot;curved&quot;:0,&quot;rounded&quot;:0};" vertex="1" parent="zxPr2gEcFa-4skPsukrC-11">
          <mxGeometry x="45" y="146" width="10" height="44" as="geometry" />
        </mxCell>
        <mxCell id="wHdZwZcguU0iFTvbYWV7-6" value="" style="html=1;points=[[0,0,0,0,5],[0,1,0,0,-5],[1,0,0,0,5],[1,1,0,0,-5]];perimeter=orthogonalPerimeter;outlineConnect=0;targetShapes=umlLifeline;portConstraint=eastwest;newEdgeStyle={&quot;curved&quot;:0,&quot;rounded&quot;:0};" vertex="1" parent="zxPr2gEcFa-4skPsukrC-11">
          <mxGeometry x="45" y="277" width="10" height="44" as="geometry" />
        </mxCell>
        <mxCell id="wHdZwZcguU0iFTvbYWV7-8" value="" style="html=1;points=[[0,0,0,0,5],[0,1,0,0,-5],[1,0,0,0,5],[1,1,0,0,-5]];perimeter=orthogonalPerimeter;outlineConnect=0;targetShapes=umlLifeline;portConstraint=eastwest;newEdgeStyle={&quot;curved&quot;:0,&quot;rounded&quot;:0};" vertex="1" parent="zxPr2gEcFa-4skPsukrC-11">
          <mxGeometry x="45" y="386" width="10" height="44" as="geometry" />
        </mxCell>
        <mxCell id="wHdZwZcguU0iFTvbYWV7-9" value="驗證成功" style="html=1;verticalAlign=bottom;endArrow=open;dashed=1;endSize=8;curved=0;rounded=0;fontSize=12;" edge="1" parent="zxPr2gEcFa-4skPsukrC-11">
          <mxGeometry relative="1" as="geometry">
            <mxPoint x="251" y="395" as="sourcePoint" />
            <mxPoint x="57" y="395" as="targetPoint" />
          </mxGeometry>
        </mxCell>
        <mxCell id="wHdZwZcguU0iFTvbYWV7-13" value="" style="html=1;points=[[0,0,0,0,5],[0,1,0,0,-5],[1,0,0,0,5],[1,1,0,0,-5]];perimeter=orthogonalPerimeter;outlineConnect=0;targetShapes=umlLifeline;portConstraint=eastwest;newEdgeStyle={&quot;curved&quot;:0,&quot;rounded&quot;:0};" vertex="1" parent="zxPr2gEcFa-4skPsukrC-11">
          <mxGeometry x="45.00000000000003" y="466" width="10" height="50" as="geometry" />
        </mxCell>
        <mxCell id="wHdZwZcguU0iFTvbYWV7-16" value="" style="html=1;points=[[0,0,0,0,5],[0,1,0,0,-5],[1,0,0,0,5],[1,1,0,0,-5]];perimeter=orthogonalPerimeter;outlineConnect=0;targetShapes=umlLifeline;portConstraint=eastwest;newEdgeStyle={&quot;curved&quot;:0,&quot;rounded&quot;:0};" vertex="1" parent="zxPr2gEcFa-4skPsukrC-11">
          <mxGeometry x="44.97" y="544" width="10" height="66" as="geometry" />
        </mxCell>
        <mxCell id="zxPr2gEcFa-4skPsukrC-14" value="輸入帳號密碼（帳號、密碼）" style="html=1;verticalAlign=bottom;endArrow=block;curved=0;rounded=0;fontSize=12;startSize=8;endSize=8;" parent="1" edge="1">
          <mxGeometry relative="1" as="geometry">
            <mxPoint x="-48" y="152" as="sourcePoint" />
            <mxPoint x="147" y="151" as="targetPoint" />
          </mxGeometry>
        </mxCell>
        <mxCell id="zxPr2gEcFa-4skPsukrC-16" value="顯示管理者登入頁面" style="html=1;verticalAlign=bottom;endArrow=open;dashed=1;endSize=8;curved=0;rounded=0;fontSize=12;" parent="1" edge="1" source="zxPr2gEcFa-4skPsukrC-12">
          <mxGeometry relative="1" as="geometry">
            <mxPoint x="137" y="113" as="sourcePoint" />
            <mxPoint x="-48" y="113" as="targetPoint" />
          </mxGeometry>
        </mxCell>
        <mxCell id="zxPr2gEcFa-4skPsukrC-18" value=":Backend" style="shape=umlLifeline;perimeter=lifelinePerimeter;whiteSpace=wrap;html=1;container=1;dropTarget=0;collapsible=0;recursiveResize=0;outlineConnect=0;portConstraint=eastwest;newEdgeStyle={&quot;curved&quot;:0,&quot;rounded&quot;:0};" parent="1" vertex="1">
          <mxGeometry x="312" y="-6" width="100" height="1126" as="geometry" />
        </mxCell>
        <mxCell id="zxPr2gEcFa-4skPsukrC-19" value="" style="html=1;points=[[0,0,0,0,5],[0,1,0,0,-5],[1,0,0,0,5],[1,1,0,0,-5]];perimeter=orthogonalPerimeter;outlineConnect=0;targetShapes=umlLifeline;portConstraint=eastwest;newEdgeStyle={&quot;curved&quot;:0,&quot;rounded&quot;:0};" parent="zxPr2gEcFa-4skPsukrC-18" vertex="1">
          <mxGeometry x="45" y="180" width="10" height="230" as="geometry" />
        </mxCell>
        <mxCell id="zxPr2gEcFa-4skPsukrC-36" value="查詢帳號密碼()" style="html=1;align=left;spacingLeft=2;endArrow=block;rounded=0;edgeStyle=orthogonalEdgeStyle;curved=0;rounded=0;fontSize=12;startSize=8;endSize=8;" parent="zxPr2gEcFa-4skPsukrC-18" edge="1" target="wHdZwZcguU0iFTvbYWV7-1">
          <mxGeometry relative="1" as="geometry">
            <mxPoint x="55" y="206.0344827586207" as="sourcePoint" />
            <Array as="points">
              <mxPoint x="93" y="206" />
              <mxPoint x="93" y="236" />
            </Array>
            <mxPoint x="68" y="236" as="targetPoint" />
          </mxGeometry>
        </mxCell>
        <mxCell id="wHdZwZcguU0iFTvbYWV7-1" value="" style="html=1;points=[[0,0,0,0,5],[0,1,0,0,-5],[1,0,0,0,5],[1,1,0,0,-5]];perimeter=orthogonalPerimeter;outlineConnect=0;targetShapes=umlLifeline;portConstraint=eastwest;newEdgeStyle={&quot;curved&quot;:0,&quot;rounded&quot;:0};" vertex="1" parent="zxPr2gEcFa-4skPsukrC-18">
          <mxGeometry x="49" y="227" width="10" height="20" as="geometry" />
        </mxCell>
        <mxCell id="wHdZwZcguU0iFTvbYWV7-20" value="" style="html=1;points=[[0,0,0,0,5],[0,1,0,0,-5],[1,0,0,0,5],[1,1,0,0,-5]];perimeter=orthogonalPerimeter;outlineConnect=0;targetShapes=umlLifeline;portConstraint=eastwest;newEdgeStyle={&quot;curved&quot;:0,&quot;rounded&quot;:0};" vertex="1" parent="zxPr2gEcFa-4skPsukrC-18">
          <mxGeometry x="-164" y="696" width="10" height="44" as="geometry" />
        </mxCell>
        <mxCell id="wHdZwZcguU0iFTvbYWV7-21" value="" style="html=1;points=[[0,0,0,0,5],[0,1,0,0,-5],[1,0,0,0,5],[1,1,0,0,-5]];perimeter=orthogonalPerimeter;outlineConnect=0;targetShapes=umlLifeline;portConstraint=eastwest;newEdgeStyle={&quot;curved&quot;:0,&quot;rounded&quot;:0};" vertex="1" parent="zxPr2gEcFa-4skPsukrC-18">
          <mxGeometry x="-164" y="855" width="10" height="44" as="geometry" />
        </mxCell>
        <mxCell id="wHdZwZcguU0iFTvbYWV7-22" value="&lt;span style=&quot;font-weight: 700;&quot;&gt;驗證&lt;/span&gt;成功" style="html=1;verticalAlign=bottom;endArrow=open;dashed=1;endSize=8;curved=0;rounded=0;fontSize=12;" edge="1" parent="zxPr2gEcFa-4skPsukrC-18">
          <mxGeometry relative="1" as="geometry">
            <mxPoint x="42" y="864" as="sourcePoint" />
            <mxPoint x="-152" y="864" as="targetPoint" />
          </mxGeometry>
        </mxCell>
        <mxCell id="wHdZwZcguU0iFTvbYWV7-23" value="" style="html=1;points=[[0,0,0,0,5],[0,1,0,0,-5],[1,0,0,0,5],[1,1,0,0,-5]];perimeter=orthogonalPerimeter;outlineConnect=0;targetShapes=umlLifeline;portConstraint=eastwest;newEdgeStyle={&quot;curved&quot;:0,&quot;rounded&quot;:0};" vertex="1" parent="zxPr2gEcFa-4skPsukrC-18">
          <mxGeometry x="45" y="599" width="10" height="281" as="geometry" />
        </mxCell>
        <mxCell id="wHdZwZcguU0iFTvbYWV7-24" value="查詢帳號密碼()" style="html=1;align=left;spacingLeft=2;endArrow=block;rounded=0;edgeStyle=orthogonalEdgeStyle;curved=0;rounded=0;fontSize=12;startSize=8;endSize=8;" edge="1" parent="zxPr2gEcFa-4skPsukrC-18" target="wHdZwZcguU0iFTvbYWV7-25">
          <mxGeometry relative="1" as="geometry">
            <mxPoint x="55" y="625.0344827586207" as="sourcePoint" />
            <Array as="points">
              <mxPoint x="93" y="625" />
              <mxPoint x="93" y="655" />
            </Array>
            <mxPoint x="68" y="655" as="targetPoint" />
          </mxGeometry>
        </mxCell>
        <mxCell id="wHdZwZcguU0iFTvbYWV7-25" value="" style="html=1;points=[[0,0,0,0,5],[0,1,0,0,-5],[1,0,0,0,5],[1,1,0,0,-5]];perimeter=orthogonalPerimeter;outlineConnect=0;targetShapes=umlLifeline;portConstraint=eastwest;newEdgeStyle={&quot;curved&quot;:0,&quot;rounded&quot;:0};" vertex="1" parent="zxPr2gEcFa-4skPsukrC-18">
          <mxGeometry x="49" y="646" width="10" height="20" as="geometry" />
        </mxCell>
        <mxCell id="wHdZwZcguU0iFTvbYWV7-26" value="驗證管理者資料（帳號名稱密碼）" style="html=1;verticalAlign=bottom;endArrow=block;curved=0;rounded=0;fontSize=12;startSize=8;endSize=8;" edge="1" parent="zxPr2gEcFa-4skPsukrC-18">
          <mxGeometry relative="1" as="geometry">
            <mxPoint x="-152" y="606" as="sourcePoint" />
            <mxPoint x="43" y="605" as="targetPoint" />
          </mxGeometry>
        </mxCell>
        <mxCell id="wHdZwZcguU0iFTvbYWV7-27" value="&lt;span style=&quot;font-weight: 700;&quot;&gt;驗證&lt;/span&gt;失敗" style="html=1;verticalAlign=bottom;endArrow=open;dashed=1;endSize=8;curved=0;rounded=0;fontSize=12;" edge="1" parent="zxPr2gEcFa-4skPsukrC-18">
          <mxGeometry relative="1" as="geometry">
            <mxPoint x="42" y="705" as="sourcePoint" />
            <mxPoint x="-152" y="705" as="targetPoint" />
          </mxGeometry>
        </mxCell>
        <mxCell id="zxPr2gEcFa-4skPsukrC-22" value="驗證帳號密碼（帳號密碼）" style="html=1;verticalAlign=bottom;endArrow=block;curved=0;rounded=0;fontSize=12;startSize=8;endSize=8;" parent="1" edge="1">
          <mxGeometry relative="1" as="geometry">
            <mxPoint x="160" y="181" as="sourcePoint" />
            <mxPoint x="355" y="180" as="targetPoint" />
          </mxGeometry>
        </mxCell>
        <mxCell id="zxPr2gEcFa-4skPsukrC-27" value="" style="line;strokeWidth=1;fillColor=none;align=left;verticalAlign=middle;spacingTop=-1;spacingLeft=3;spacingRight=3;rotatable=0;labelPosition=right;points=[];portConstraint=eastwest;strokeColor=inherit;dashed=1;" parent="1" vertex="1">
          <mxGeometry x="-157" y="353" width="697" height="8" as="geometry" />
        </mxCell>
        <mxCell id="zxPr2gEcFa-4skPsukrC-29" value="[驗證失敗]" style="text;align=center;fontStyle=1;verticalAlign=middle;spacingLeft=3;spacingRight=3;strokeColor=none;rotatable=0;points=[[0,0.5],[1,0.5]];portConstraint=eastwest;html=1;" parent="1" vertex="1">
          <mxGeometry x="-149" y="306" width="80" height="26" as="geometry" />
        </mxCell>
        <mxCell id="zxPr2gEcFa-4skPsukrC-30" value="[驗證成功]" style="text;align=center;fontStyle=1;verticalAlign=middle;spacingLeft=3;spacingRight=3;strokeColor=none;rotatable=0;points=[[0,0.5],[1,0.5]];portConstraint=eastwest;html=1;" parent="1" vertex="1">
          <mxGeometry x="-149" y="401" width="80" height="26" as="geometry" />
        </mxCell>
        <mxCell id="zxPr2gEcFa-4skPsukrC-31" value="要求重新輸入帳號密碼" style="html=1;verticalAlign=bottom;endArrow=open;dashed=1;endSize=8;curved=0;rounded=0;fontSize=12;" parent="1" edge="1">
          <mxGeometry relative="1" as="geometry">
            <mxPoint x="146" y="306" as="sourcePoint" />
            <mxPoint x="-48" y="306" as="targetPoint" />
          </mxGeometry>
        </mxCell>
        <mxCell id="zxPr2gEcFa-4skPsukrC-32" value="顯示管理系統頁面" style="html=1;verticalAlign=bottom;endArrow=open;dashed=1;endSize=8;curved=0;rounded=0;fontSize=12;" parent="1" edge="1" target="zxPr2gEcFa-4skPsukrC-9">
          <mxGeometry relative="1" as="geometry">
            <mxPoint x="144" y="421" as="sourcePoint" />
            <mxPoint x="-41" y="421" as="targetPoint" />
          </mxGeometry>
        </mxCell>
        <mxCell id="wHdZwZcguU0iFTvbYWV7-7" value="驗證失敗" style="html=1;verticalAlign=bottom;endArrow=open;dashed=1;endSize=8;curved=0;rounded=0;fontSize=12;" edge="1" parent="1">
          <mxGeometry relative="1" as="geometry">
            <mxPoint x="354" y="280" as="sourcePoint" />
            <mxPoint x="160" y="280" as="targetPoint" />
          </mxGeometry>
        </mxCell>
        <mxCell id="wHdZwZcguU0iFTvbYWV7-15" value="進入資料管理頁面()" style="html=1;verticalAlign=bottom;endArrow=block;curved=0;rounded=0;" edge="1" parent="1" target="wHdZwZcguU0iFTvbYWV7-13">
          <mxGeometry x="0.0032" width="80" relative="1" as="geometry">
            <mxPoint x="-46.860000000000014" y="470" as="sourcePoint" />
            <mxPoint x="103.00000000000001" y="470" as="targetPoint" />
            <mxPoint as="offset" />
          </mxGeometry>
        </mxCell>
        <mxCell id="wHdZwZcguU0iFTvbYWV7-14" value="顯示資料管理頁面" style="html=1;verticalAlign=bottom;labelBackgroundColor=none;endArrow=open;endFill=0;dashed=1;rounded=0;" edge="1" parent="1" source="wHdZwZcguU0iFTvbYWV7-13">
          <mxGeometry width="160" relative="1" as="geometry">
            <mxPoint x="103.00000000000014" y="500" as="sourcePoint" />
            <mxPoint x="-46.97000000000011" y="500" as="targetPoint" />
          </mxGeometry>
        </mxCell>
        <mxCell id="wHdZwZcguU0iFTvbYWV7-17" value="建立新管理者帳號()" style="html=1;verticalAlign=bottom;endArrow=block;curved=0;rounded=0;" edge="1" target="wHdZwZcguU0iFTvbYWV7-16" parent="1">
          <mxGeometry x="0.0032" width="80" relative="1" as="geometry">
            <mxPoint x="-46.890000000000015" y="548" as="sourcePoint" />
            <mxPoint x="102.97000000000001" y="548" as="targetPoint" />
            <mxPoint as="offset" />
          </mxGeometry>
        </mxCell>
        <mxCell id="wHdZwZcguU0iFTvbYWV7-19" value="輸入新管理者資料(帳號、名稱、密碼)" style="html=1;verticalAlign=bottom;endArrow=block;curved=0;rounded=0;" edge="1" parent="1">
          <mxGeometry x="0.0032" width="80" relative="1" as="geometry">
            <mxPoint x="-47.000000000000014" y="580" as="sourcePoint" />
            <mxPoint x="147.89" y="580" as="targetPoint" />
            <mxPoint as="offset" />
          </mxGeometry>
        </mxCell>
        <mxCell id="wHdZwZcguU0iFTvbYWV7-28" value="alt&amp;nbsp;" style="shape=umlFrame;whiteSpace=wrap;html=1;pointerEvents=0;" vertex="1" parent="1">
          <mxGeometry x="-142.5" y="671" width="662.5" height="269" as="geometry" />
        </mxCell>
        <mxCell id="wHdZwZcguU0iFTvbYWV7-29" value="" style="line;strokeWidth=1;fillColor=none;align=left;verticalAlign=middle;spacingTop=-1;spacingLeft=3;spacingRight=3;rotatable=0;labelPosition=right;points=[];portConstraint=eastwest;strokeColor=inherit;dashed=1;" vertex="1" parent="1">
          <mxGeometry x="-140" y="767" width="660" height="8" as="geometry" />
        </mxCell>
        <mxCell id="wHdZwZcguU0iFTvbYWV7-30" value="[驗證失敗]" style="text;align=center;fontStyle=1;verticalAlign=middle;spacingLeft=3;spacingRight=3;strokeColor=none;rotatable=0;points=[[0,0.5],[1,0.5]];portConstraint=eastwest;html=1;" vertex="1" parent="1">
          <mxGeometry x="-141" y="720" width="80" height="26" as="geometry" />
        </mxCell>
        <mxCell id="wHdZwZcguU0iFTvbYWV7-31" value="[驗證成功]" style="text;align=center;fontStyle=1;verticalAlign=middle;spacingLeft=3;spacingRight=3;strokeColor=none;rotatable=0;points=[[0,0.5],[1,0.5]];portConstraint=eastwest;html=1;" vertex="1" parent="1">
          <mxGeometry x="-141" y="815" width="80" height="26" as="geometry" />
        </mxCell>
        <mxCell id="wHdZwZcguU0iFTvbYWV7-32" value="建立失敗" style="html=1;verticalAlign=bottom;endArrow=open;dashed=1;endSize=8;curved=0;rounded=0;fontSize=12;" edge="1" parent="1">
          <mxGeometry relative="1" as="geometry">
            <mxPoint x="148" y="720" as="sourcePoint" />
            <mxPoint x="-46" y="720" as="targetPoint" />
          </mxGeometry>
        </mxCell>
        <mxCell id="wHdZwZcguU0iFTvbYWV7-33" value="建立管理者帳號()" style="html=1;align=left;spacingLeft=2;endArrow=block;rounded=0;edgeStyle=orthogonalEdgeStyle;curved=0;rounded=0;fontSize=12;startSize=8;endSize=8;" edge="1" parent="1" target="wHdZwZcguU0iFTvbYWV7-34">
          <mxGeometry relative="1" as="geometry">
            <mxPoint x="367" y="807.5344827586207" as="sourcePoint" />
            <Array as="points">
              <mxPoint x="405" y="807.5" />
              <mxPoint x="405" y="837.5" />
            </Array>
            <mxPoint x="380" y="837.5" as="targetPoint" />
          </mxGeometry>
        </mxCell>
        <mxCell id="wHdZwZcguU0iFTvbYWV7-34" value="" style="html=1;points=[[0,0,0,0,5],[0,1,0,0,-5],[1,0,0,0,5],[1,1,0,0,-5]];perimeter=orthogonalPerimeter;outlineConnect=0;targetShapes=umlLifeline;portConstraint=eastwest;newEdgeStyle={&quot;curved&quot;:0,&quot;rounded&quot;:0};" vertex="1" parent="1">
          <mxGeometry x="361" y="828.5" width="10" height="20" as="geometry" />
        </mxCell>
        <mxCell id="wHdZwZcguU0iFTvbYWV7-37" value="建立成功" style="html=1;verticalAlign=bottom;endArrow=open;dashed=1;endSize=8;curved=0;rounded=0;fontSize=12;" edge="1" parent="1">
          <mxGeometry relative="1" as="geometry">
            <mxPoint x="145" y="890" as="sourcePoint" />
            <mxPoint x="-49" y="890" as="targetPoint" />
          </mxGeometry>
        </mxCell>
        <mxCell id="wHdZwZcguU0iFTvbYWV7-38" value="管理帳號建立" style="shape=umlFrame;whiteSpace=wrap;html=1;pointerEvents=0;width=126;height=50;" vertex="1" parent="1">
          <mxGeometry x="-323" y="-40" width="1006" height="1180" as="geometry" />
        </mxCell>
      </root>
    </mxGraphModel>
  </diagram>
</mxfile>
